<mxfile host="app.diagrams.net" agent="Mozilla/5.0 (Windows NT 10.0; Win64; x64) AppleWebKit/537.36 (KHTML, like Gecko) Chrome/138.0.0.0 Safari/537.36" version="28.0.7">
  <diagram name="Page-1" id="8I_IUX1fx3-4VJ_a7lVE">
    <mxGraphModel dx="1965" dy="3243" grid="1" gridSize="10" guides="1" tooltips="1" connect="1" arrows="1" fold="1" page="1" pageScale="1" pageWidth="850" pageHeight="1100" math="0" shadow="0">
      <root>
        <mxCell id="0" />
        <mxCell id="1" parent="0" />
        <mxCell id="6eVdthLz5_2hBX5ZofS5-13" value="" style="edgeStyle=orthogonalEdgeStyle;rounded=0;orthogonalLoop=1;jettySize=auto;html=1;" edge="1" parent="1" source="6eVdthLz5_2hBX5ZofS5-1" target="6eVdthLz5_2hBX5ZofS5-12">
          <mxGeometry relative="1" as="geometry" />
        </mxCell>
        <mxCell id="6eVdthLz5_2hBX5ZofS5-1" value="&lt;font style=&quot;font-size: 18px;&quot;&gt;Start&lt;/font&gt;" style="ellipse;whiteSpace=wrap;html=1;fillColor=light-dark(#008A00,#009900);fontColor=#ffffff;strokeColor=#005700;" vertex="1" parent="1">
          <mxGeometry x="205" y="-2180" width="220" height="80" as="geometry" />
        </mxCell>
        <mxCell id="6eVdthLz5_2hBX5ZofS5-24" value="" style="edgeStyle=orthogonalEdgeStyle;rounded=0;orthogonalLoop=1;jettySize=auto;html=1;" edge="1" parent="1" source="6eVdthLz5_2hBX5ZofS5-3" target="6eVdthLz5_2hBX5ZofS5-10">
          <mxGeometry relative="1" as="geometry" />
        </mxCell>
        <mxCell id="6eVdthLz5_2hBX5ZofS5-3" value="&lt;font style=&quot;font-size: 14px; color: light-dark(rgb(0, 0, 0), rgb(0, 0, 0));&quot;&gt;Give Your Photograph&lt;/font&gt;" style="rounded=0;whiteSpace=wrap;html=1;fillColor=light-dark(#FFFFFF,#6600CC);" vertex="1" parent="1">
          <mxGeometry x="600" y="-2000.62" width="170" height="58.75" as="geometry" />
        </mxCell>
        <mxCell id="6eVdthLz5_2hBX5ZofS5-23" value="" style="edgeStyle=orthogonalEdgeStyle;rounded=0;orthogonalLoop=1;jettySize=auto;html=1;" edge="1" parent="1" source="6eVdthLz5_2hBX5ZofS5-5" target="6eVdthLz5_2hBX5ZofS5-6">
          <mxGeometry relative="1" as="geometry" />
        </mxCell>
        <mxCell id="6eVdthLz5_2hBX5ZofS5-5" value="&lt;font style=&quot;font-size: 14px; color: light-dark(rgb(0, 0, 0), rgb(0, 0, 0));&quot;&gt;Face Recognized&lt;/font&gt;" style="rhombus;whiteSpace=wrap;html=1;fillColor=light-dark(#FFFFFF,#B5739D);" vertex="1" parent="1">
          <mxGeometry x="250" y="-1740" width="130" height="120" as="geometry" />
        </mxCell>
        <mxCell id="6eVdthLz5_2hBX5ZofS5-20" value="" style="edgeStyle=orthogonalEdgeStyle;rounded=0;orthogonalLoop=1;jettySize=auto;html=1;" edge="1" parent="1" source="6eVdthLz5_2hBX5ZofS5-6" target="6eVdthLz5_2hBX5ZofS5-9">
          <mxGeometry relative="1" as="geometry" />
        </mxCell>
        <mxCell id="6eVdthLz5_2hBX5ZofS5-6" value="&lt;font style=&quot;font-size: 15px; color: light-dark(rgb(0, 0, 0), rgb(0, 0, 0));&quot;&gt;Stored in CSV file with Registration Number &amp;amp; Date,Time of Entry&lt;/font&gt;" style="shape=parallelogram;perimeter=parallelogramPerimeter;whiteSpace=wrap;html=1;fixedSize=1;fillColor=light-dark(#FFFFFF,#CC6600);" vertex="1" parent="1">
          <mxGeometry x="207.5" y="-1540" width="215" height="90" as="geometry" />
        </mxCell>
        <mxCell id="6eVdthLz5_2hBX5ZofS5-15" value="" style="edgeStyle=orthogonalEdgeStyle;rounded=0;orthogonalLoop=1;jettySize=auto;html=1;" edge="1" parent="1" source="6eVdthLz5_2hBX5ZofS5-8" target="6eVdthLz5_2hBX5ZofS5-5">
          <mxGeometry relative="1" as="geometry" />
        </mxCell>
        <mxCell id="6eVdthLz5_2hBX5ZofS5-8" value="&lt;font style=&quot;font-size: 15px; color: light-dark(rgb(0, 0, 0), rgb(0, 0, 0));&quot;&gt;Recognize the Face&lt;/font&gt;" style="shape=parallelogram;perimeter=parallelogramPerimeter;whiteSpace=wrap;html=1;fixedSize=1;fillColor=light-dark(#FFFFFF,#CC0066);" vertex="1" parent="1">
          <mxGeometry x="195" y="-1860" width="240" height="60" as="geometry" />
        </mxCell>
        <mxCell id="6eVdthLz5_2hBX5ZofS5-9" value="&lt;font style=&quot;font-size: 18px; color: light-dark(rgb(0, 0, 0), rgb(0, 0, 0));&quot;&gt;End&amp;nbsp;&lt;/font&gt;" style="ellipse;whiteSpace=wrap;html=1;fillColor=light-dark(#FFFFFF,#EA6B66);" vertex="1" parent="1">
          <mxGeometry x="255" y="-1360" width="120" height="80" as="geometry" />
        </mxCell>
        <mxCell id="6eVdthLz5_2hBX5ZofS5-32" value="" style="edgeStyle=elbowEdgeStyle;rounded=0;orthogonalLoop=1;jettySize=auto;html=1;" edge="1" parent="1" source="6eVdthLz5_2hBX5ZofS5-10" target="6eVdthLz5_2hBX5ZofS5-8">
          <mxGeometry relative="1" as="geometry" />
        </mxCell>
        <mxCell id="6eVdthLz5_2hBX5ZofS5-10" value="&lt;font style=&quot;font-size: 13px; color: light-dark(rgb(0, 0, 0), rgb(0, 0, 0));&quot;&gt;Store the Face Data in folder on your name&lt;/font&gt;" style="rounded=0;whiteSpace=wrap;html=1;fillColor=light-dark(#FFFFFF,#66B2FF);" vertex="1" parent="1">
          <mxGeometry x="595" y="-1860" width="180" height="60" as="geometry" />
        </mxCell>
        <mxCell id="6eVdthLz5_2hBX5ZofS5-14" value="" style="edgeStyle=orthogonalEdgeStyle;rounded=0;orthogonalLoop=1;jettySize=auto;html=1;" edge="1" parent="1" source="6eVdthLz5_2hBX5ZofS5-12" target="6eVdthLz5_2hBX5ZofS5-8">
          <mxGeometry relative="1" as="geometry" />
        </mxCell>
        <mxCell id="6eVdthLz5_2hBX5ZofS5-33" style="edgeStyle=elbowEdgeStyle;rounded=0;orthogonalLoop=1;jettySize=auto;html=1;entryX=0;entryY=0.5;entryDx=0;entryDy=0;" edge="1" parent="1" source="6eVdthLz5_2hBX5ZofS5-12" target="6eVdthLz5_2hBX5ZofS5-3">
          <mxGeometry relative="1" as="geometry" />
        </mxCell>
        <mxCell id="6eVdthLz5_2hBX5ZofS5-12" value="&lt;font style=&quot;color: light-dark(rgb(0, 0, 0), rgb(0, 0, 0));&quot;&gt;New User?&lt;/font&gt;" style="rhombus;whiteSpace=wrap;html=1;fillColor=light-dark(#FFFFFF,#FF3333);" vertex="1" parent="1">
          <mxGeometry x="255" y="-2022.5" width="120" height="102.5" as="geometry" />
        </mxCell>
        <mxCell id="6eVdthLz5_2hBX5ZofS5-36" value="" style="endArrow=none;html=1;rounded=0;elbow=vertical;curved=1;exitX=1;exitY=0.5;exitDx=0;exitDy=0;" edge="1" parent="1" source="6eVdthLz5_2hBX5ZofS5-6">
          <mxGeometry width="50" height="50" relative="1" as="geometry">
            <mxPoint x="470" y="-1480" as="sourcePoint" />
            <mxPoint x="830" y="-1495" as="targetPoint" />
          </mxGeometry>
        </mxCell>
        <mxCell id="6eVdthLz5_2hBX5ZofS5-38" value="" style="endArrow=none;html=1;rounded=0;elbow=vertical;curved=1;" edge="1" parent="1">
          <mxGeometry width="50" height="50" relative="1" as="geometry">
            <mxPoint x="820" y="-1490" as="sourcePoint" />
            <mxPoint x="820" y="-2100" as="targetPoint" />
          </mxGeometry>
        </mxCell>
        <mxCell id="6eVdthLz5_2hBX5ZofS5-39" value="" style="endArrow=none;html=1;rounded=0;elbow=vertical;curved=1;" edge="1" parent="1">
          <mxGeometry width="50" height="50" relative="1" as="geometry">
            <mxPoint x="670" y="-2100" as="sourcePoint" />
            <mxPoint x="820" y="-2100" as="targetPoint" />
          </mxGeometry>
        </mxCell>
        <mxCell id="6eVdthLz5_2hBX5ZofS5-40" value="" style="endArrow=none;html=1;rounded=0;elbow=vertical;curved=1;exitX=0.414;exitY=-0.01;exitDx=0;exitDy=0;exitPerimeter=0;" edge="1" parent="1" source="6eVdthLz5_2hBX5ZofS5-3">
          <mxGeometry width="50" height="50" relative="1" as="geometry">
            <mxPoint x="690" y="-2010" as="sourcePoint" />
            <mxPoint x="670" y="-2100" as="targetPoint" />
          </mxGeometry>
        </mxCell>
      </root>
    </mxGraphModel>
  </diagram>
</mxfile>
